<?xml version="1.0" encoding="UTF-8"?>
<svg id="Layer_3" xmlns="http://www.w3.org/2000/svg" version="1.1" viewBox="0 0 1815.17 1018.88">
  <!-- Generator: Adobe Illustrator 30.0.0, SVG Export Plug-In . SVG Version: 2.1.1 Build 123)  -->
  <defs>
    <style>
      .st0 {
        fill: #161616;
      }
    </style>
  </defs>
  <path class="st0" d="M1650.6,377.65c-1.16,139.9,2.52,499.84,4.79,607.9,11.92-16.81,28.18-42.75,41.3-76.92,19.68-51.25,22.3-95,23.25-118.66,3.13-77.57,3.74-174.61-3.58-502.56-21.92,30.08-43.84,60.16-65.77,90.24Z"/>
  <path class="st0" d="M1545.31,466.08c-20.26,28.29-40.51,56.59-60.77,84.88,6.69,8.9,15.32,21.5,23.75,37.59,5.65,10.78,9.13,19.17,10.01,21.3,8.54,20.88,12.75,39.9,14.9,54.87-96.93,47.4-289.65,124.35-532.96,107.12-234.26-16.59-411.51-113.13-492.16-158.13-25.9-14.45-47.05-27.43-62.02-36.92-12.09-45.32-31.01-81.71-44.91-104.87-21.97,29.66-43.93,59.33-65.9,88.99,25.69,36.19,43.44,67.89,55.19,90.96,16.26,31.93,17.8,44.5,20.97,53.28,10.58,29.28,5.95,61.87-12.66,86.9-14.26,19.08-29.19,35.14-45.34,48.93-13.51,11.53-41.28,33.72-84.26,51.2-26.54,10.86-84.92,33.81-155.95,20.02-19.55-3.78-35.14-9.35-45.34-13.6,13.98,12,34,27.68,59.7,43.36,25.6,15.77,46.95,28.81,77.74,36.84,16.91,4.34,43.17,8.97,76.61,5.57,0,0,19.18-3.21,38.16-11.52,40.62-17.76,93.14-96.44,127.8-210.36,3.45-14.32,7.04-33.07,9.02-55.22,12.87,6.05,31.31,14.49,38.44,17.72,230.66,110.27,427.16,132.86,547.59,136.19,295.17,8.16,512.26-88.93,523.66-145.45.48-2.38,14.45-92.66,11.81-128.18-3.68-53.94-20.31-95.69-33.06-121.47Z"/>
  <path class="st0" d="M980.72,628.43c-1.54,1.98-1.62,4.7-.16,6.75,10.82,15.19,27.26,34.54,51.02,52.43,16.21,12.2,31.86,20.74,45.12,26.75,2.25,1.02,4.87.45,6.53-1.39,11.17-12.33,22.43-25.11,33.76-38.35,13.28-15.52,25.96-30.87,38.06-45.98.43-.54.71-1.14.92-1.75,10.5,13.26,24.7,28.39,43.63,42.64,16.21,12.2,31.87,20.74,45.12,26.75,2.25,1.02,4.87.45,6.53-1.39,11.17-12.33,22.43-25.11,33.76-38.35,13.28-15.52,25.96-30.87,38.06-45.98,1.89-2.37,1.62-5.77-.63-7.8-8.55-7.69-17.55-15.43-27.04-23.19-22.47-18.38-44.54-34.27-65.58-48.01-2.14-1.4-4.91-1.21-6.84.47-6.75,5.85-13.59,12.06-20.45,18.64-21.04,20.16-38.81,40.41-53.78,59.68-1.04,1.34-1.36,3.01-1.04,4.59-6.54-5.75-13.25-11.51-20.32-17.29-22.47-18.38-44.54-34.27-65.58-48.01-2.14-1.4-4.91-1.21-6.84.47-6.75,5.85-13.59,12.06-20.45,18.64-21.04,20.16-38.81,40.41-53.78,59.68Z"/>
  <path class="st0" d="M1100.43,550.62c16.21,12.2,31.87,20.74,45.12,26.75,2.25,1.02,4.87.45,6.53-1.39,11.17-12.33,22.43-25.11,33.76-38.35,13.28-15.52,25.96-30.87,38.06-45.98,1.89-2.37,1.62-5.77-.63-7.8-8.55-7.69-17.55-15.43-27.04-23.19-22.47-18.38-44.54-34.27-65.58-48.01-2.14-1.4-4.91-1.21-6.84.47-6.75,5.85-13.59,12.06-20.45,18.64-21.04,20.16-38.81,40.41-53.78,59.68-1.54,1.98-1.62,4.7-.16,6.75,10.82,15.19,27.26,34.54,51.02,52.43Z"/>
  <path class="st0" d="M1144.19,361.54c85.54-14.65,182.43-28.16,284.3-97.84,16.08-11,28.69-20.94,36.87-27.65-292.94,54.43-518.49,102.03-645.51,127.61-41.65,8.39-126.32,25.2-210.21,87.91-30.66,22.92-52.97,45.8-67.35,62.03,43.01-14.8,108.73-36.33,190-58.49,227.19-61.95,411.91-93.58,411.91-93.58Z"/>
  <path class="st0" d="M1795.32,157.63c-17.56,5.85-33.83,10.48-48.81,13.87-14.98,3.4-27.39,5.09-37.22,5.09-2.58,0-6.5-.52-11.76-1.58-5.27-1.05-11.24-2.64-17.91-4.74-6.67-2.11-13.52-4.62-20.54-7.55-7.02-2.93-13.46-6.26-19.31-10.01-5.85-3.74-10.65-7.84-14.4-12.29-3.75-4.44-5.62-9.25-5.62-14.4,0-3.98,1.46-7.6,4.39-10.89,2.93-3.27,6.55-6.02,10.89-8.25,4.33-2.22,9.07-3.91,14.22-5.09,5.15-1.17,10.06-1.75,14.75-1.75,9.59,0,19.08,1.93,28.44,5.79,9.36,3.87,17.09,9.54,23.18,17.03h3.51c2.81-3.74,5.38-7.84,7.72-12.29,2.34-4.44,4.39-8.96,6.14-13.52,1.76-4.57,3.16-8.89,4.21-12.99,1.05-4.09,1.58-7.55,1.58-10.36,0-6.32-1.11-11.99-3.33-17.03-2.23-5.03-5.21-9.24-8.95-12.64-3.75-3.39-8.2-6.03-13.34-7.9-5.15-1.87-10.65-2.81-16.5-2.81-9.6,0-19.37,2.28-29.32,6.84-9.95,4.57-19.55,10.59-28.79,18.09-9.25,7.49-17.91,16.04-25.99,25.63-8.07,9.6-15.16,19.32-21.24,29.14-6.09,9.83-10.89,19.49-14.4,28.97-3.51,9.48-5.27,17.73-5.27,24.75s1.58,13.87,4.74,20.54c3.16,6.67,7.6,12.94,13.34,18.79,5.73,5.86,12.82,11.06,21.24,15.63,8.43,4.57,17.91,8.37,28.44,11.41-15.92,10.77-27.16,21.36-33.71,31.78-6.56,10.42-10.77,20.65-12.64,30.72.7,3.28,1.75,5.97,3.16,8.07,1.4,2.11,3.04,3.87,4.91,5.27,12.17-8.9,24.93-17.09,38.28-24.58,13.34-7.49,27.04-14.57,41.08-21.25,14.05-6.67,28.27-13.04,42.66-19.13,14.4-6.09,28.97-12.29,43.72-18.61,7.49-9.13,14.1-19.32,19.84-30.55,5.73-11.24,10.24-22.48,13.52-33.71l-4.91-3.51Z"/>
</svg>